HIERARCHY
ROOT Hips
{
 OFFSET -42.198200226 91.614723206 -40.067840576
 CHANNELS 6 Xposition Yposition Zposition Zrotation Yrotation Xrotation
 JOINT LeftUpLeg
 {
  OFFSET 0.103455998 1.857828975 10.548505783
  CHANNELS 3 Zrotation Yrotation Xrotation
  JOINT LeftLeg
  {
   OFFSET 43.499992371 -3.8e-05 -2e-06
   CHANNELS 3 Zrotation Yrotation Xrotation
   JOINT LeftFoot
   {
    OFFSET 42.372192383 1.5e-05 -7e-06
    CHANNELS 3 Zrotation Yrotation Xrotation
    JOINT LeftToe
    {
     OFFSET 17.299999237 -2e-06 3e-06
     CHANNELS 3 Zrotation Yrotation Xrotation
     End Site
     {
      OFFSET 0.0 0.0 0.0
     }
    }
   }
  }
 }
 JOINT RightUpLeg
 {
  OFFSET 0.103456996 1.857828975 -10.548502922
  CHANNELS 3 Zrotation Yrotation Xrotation
  JOINT RightLeg
  {
   OFFSET 43.500041962 -2.7e-05 8e-06
   CHANNELS 3 Zrotation Yrotation Xrotation
   JOINT RightFoot
   {
    OFFSET 42.372257233 -8e-06 1.4e-05
    CHANNELS 3 Zrotation Yrotation Xrotation
    JOINT RightToe
    {
     OFFSET 17.299991608 -5e-06 4e-06
     CHANNELS 3 Zrotation Yrotation Xrotation
     End Site
     {
      OFFSET 0.0 0.0 0.0
     }
    }
   }
  }
 }
 JOINT Spine
 {
  OFFSET 6.901968002 -2.603733063 -1e-06
  CHANNELS 3 Zrotation Yrotation Xrotation
  JOINT Spine1
  {
   OFFSET 12.588098526 2e-06 0.0
   CHANNELS 3 Zrotation Yrotation Xrotation
   JOINT Spine2
   {
    OFFSET 12.343206406 0.0 -1e-06
    CHANNELS 3 Zrotation Yrotation Xrotation
    JOINT Neck
    {
     OFFSET 25.832885742 -4e-06 3e-06
     CHANNELS 3 Zrotation Yrotation Xrotation
     JOINT Head
     {
      OFFSET 11.766619682 5e-06 -1e-06
      CHANNELS 3 Zrotation Yrotation Xrotation
      End Site
      {
       OFFSET 0.0 0.0 0.0
      }
     }
    }
    JOINT LeftShoulder
    {
     OFFSET 19.7458992 -1.480370045 6.000107765
     CHANNELS 3 Zrotation Yrotation Xrotation
     JOINT LeftArm
     {
      OFFSET 11.284125328 -9e-06 -1.8e-05
      CHANNELS 3 Zrotation Yrotation Xrotation
      JOINT LeftForeArm
      {
       OFFSET 33.000049591 4e-06 3.2e-05
       CHANNELS 3 Zrotation Yrotation Xrotation
       JOINT LeftHand
       {
        OFFSET 25.200008392 1.5e-05 8e-06
        CHANNELS 3 Zrotation Yrotation Xrotation
        End Site
        {
         OFFSET 0.0 0.0 0.0
        }
       }
      }
     }
    }
    JOINT RightShoulder
    {
     OFFSET 19.746099472 -1.480375051 -6.000072956
     CHANNELS 3 Zrotation Yrotation Xrotation
     JOINT RightArm
     {
      OFFSET 11.284137726 -1.5e-05 -1.2e-05
      CHANNELS 3 Zrotation Yrotation Xrotation
      JOINT RightForeArm
      {
       OFFSET 33.000091553 1.7e-05 1.3e-05
       CHANNELS 3 Zrotation Yrotation Xrotation
       JOINT RightHand
       {
        OFFSET 25.19977951 0.000135 0.000422
        CHANNELS 3 Zrotation Yrotation Xrotation
        End Site
        {
         OFFSET 0.0 0.0 0.0
        }
       }
      }
     }
    }
   }
  }
 }
}
MOTION
Frames: 9
Frame Time: 0.033333
-42.198200226 91.614723206 -40.067840576 90.17035675 -2.086048841 85.392028809 170.856521606 -0.363296986 168.197906494 -22.836420059 2.021978855 -6.742187977 84.710357666 4.013206959 -2.880858898 21.454549789 0.003082 -2e-06 170.856521606 -0.363296986 168.197906494 -22.836420059 2.021978855 -6.742187977 84.710357666 4.013206959 -2.880858898 21.454549789 0.003082 -2e-06 170.856521606 -0.363296986 168.197906494 -22.836420059 2.021978855 -6.742187977 84.710357666 4.013206959 -2.880858898 21.454549789 0.003082 -2e-06 171.034973145 5.992199898 -169.886581421 21.454549789 0.003082 -2e-06 171.034973145 5.992199898 -169.886581421 -21.319297791 -4.166972637 3.013343334 84.298919678 -0.023302898 9.810145378 21.454549789 0.003082 -2e-06 171.034973145 5.992199898 -169.886581421 -21.319297791 -4.166972637 3.013343334 84.298919678 -0.023302898 9.810145378 
-42.167758942 91.606430054 -40.190849304 90.170326233 -2.100993156 85.373725891 170.764678955 -0.349500984 168.165939331 -22.836414337 2.018615007 -6.736290455 84.703887939 4.013198853 -2.833323479 21.454555511 0.003089 1e-06 170.764678955 -0.349500984 168.165939331 -22.836414337 2.018615007 -6.736290455 84.703887939 4.013198853 -2.833323479 21.454555511 0.003089 1e-06 170.764678955 -0.349500984 168.165939331 -22.836414337 2.018615007 -6.736290455 84.703887939 4.013198853 -2.833323479 21.454555511 0.003089 1e-06 170.961578369 6.016100407 -169.888092041 21.454555511 0.003089 1e-06 170.961578369 6.016100407 -169.888092041 -21.275175095 -4.150740147 2.994656563 84.29901123 -0.013780761 9.793930054 21.454555511 0.003089 1e-06 170.961578369 6.016100407 -169.888092041 -21.275175095 -4.150740147 2.994656563 84.29901123 -0.013780761 9.793930054 
-42.108921051 91.592582703 -40.41532135 90.170341492 -2.12699461 85.344406128 170.598922729 -0.32229811 168.079940796 -22.829311371 2.034193039 -6.709418297 84.693916321 4.011327267 -2.747800827 21.454549789 0.00309 1e-06 170.598922729 -0.32229811 168.079940796 -22.829311371 2.034193039 -6.709418297 84.693916321 4.011327267 -2.747800827 21.454549789 0.00309 1e-06 170.598922729 -0.32229811 168.079940796 -22.829311371 2.034193039 -6.709418297 84.693916321 4.011327267 -2.747800827 21.454549789 0.00309 1e-06 170.844512939 6.052995205 -169.817749023 21.454549789 0.00309 1e-06 170.844512939 6.052995205 -169.817749023 -21.160551071 -4.146585464 2.923834801 84.286476135 0.030699993 9.763175964 21.454549789 0.00309 1e-06 170.844512939 6.052995205 -169.817749023 -21.160551071 -4.146585464 2.923834801 84.286476135 0.030699993 9.763175964 
-42.04940033 91.582336426 -40.63999939 90.170349121 -2.154525757 85.32119751 170.440078735 -0.288893044 167.95072937 -22.79841423 2.084735394 -6.657382965 84.671096802 3.990573883 -2.667014599 21.454549789 0.003095 0.0 170.440078735 -0.288893044 167.95072937 -22.79841423 2.084735394 -6.657382965 84.671096802 3.990573883 -2.667014599 21.454549789 0.003095 0.0 170.440078735 -0.288893044 167.95072937 -22.79841423 2.084735394 -6.657382965 84.671096802 3.990573883 -2.667014599 21.454549789 0.003095 0.0 170.746643066 6.090195656 -169.755661011 21.454549789 0.003095 0.0 170.746643066 6.090195656 -169.755661011 -21.010234833 -4.121334076 2.859874964 84.256736755 0.069687158 9.72441864 21.454549789 0.003095 0.0 170.746643066 6.090195656 -169.755661011 -21.010234833 -4.121334076 2.859874964 84.256736755 0.069687158 9.72441864 
-41.992328644 91.582496643 -40.865058899 90.170326233 -2.186479807 85.303855896 170.308486938 -0.259102017 167.824508667 -22.700719833 2.130788088 -6.600971222 84.608726501 3.967483521 -2.58108139 21.454551697 0.003093 -1e-06 170.308486938 -0.259102017 167.824508667 -22.700719833 2.130788088 -6.600971222 84.608726501 3.967483521 -2.58108139 21.454551697 0.003093 -1e-06 170.308486938 -0.259102017 167.824508667 -22.700719833 2.130788088 -6.600971222 84.608726501 3.967483521 -2.58108139 21.454551697 0.003093 -1e-06 170.684768677 6.131187916 -169.767974854 21.454551697 0.003093 -1e-06 170.684768677 6.131187916 -169.767974854 -20.791692734 -4.029384136 2.837577343 84.189002991 0.077202938 9.666243553 21.454551697 0.003093 -1e-06 170.684768677 6.131187916 -169.767974854 -20.791692734 -4.029384136 2.837577343 84.189002991 0.077202938 9.666243553 
-41.941051483 91.588996887 -41.090808868 90.170341492 -2.223839521 85.28944397 170.193939209 -0.227901936 167.729782104 -22.555124283 2.161130905 -6.557971954 84.509559631 3.953318596 -2.495634079 21.454553604 0.003092 -1e-06 170.193939209 -0.227901936 167.729782104 -22.555124283 2.161130905 -6.557971954 84.509559631 3.953318596 -2.495634079 21.454553604 0.003092 -1e-06 170.193939209 -0.227901936 167.729782104 -22.555124283 2.161130905 -6.557971954 84.509559631 3.953318596 -2.495634079 21.454553604 0.003092 -1e-06 170.632995605 6.171499252 -169.79258728 21.454553604 0.003092 -1e-06 170.632995605 6.171499252 -169.79258728 -20.543310165 -3.925083399 2.824024677 84.101661682 0.074482806 9.60118866 21.454553604 0.003092 -1e-06 170.632995605 6.171499252 -169.79258728 -20.543310165 -3.925083399 2.824024677 84.101661682 0.074482806 9.60118866 
-41.896148682 91.596717834 -41.317691803 90.165130615 -2.268815041 85.266860962 170.061386108 -0.198582917 167.730865479 -22.430727005 2.172062635 -6.573780537 84.401977539 3.975445509 -2.431238174 21.454551697 0.003087 -1e-06 170.061386108 -0.198582917 167.730865479 -22.430727005 2.172062635 -6.573780537 84.401977539 3.975445509 -2.431238174 21.454551697 0.003087 -1e-06 170.061386108 -0.198582917 167.730865479 -22.430727005 2.172062635 -6.573780537 84.401977539 3.975445509 -2.431238174 21.454551697 0.003087 -1e-06 170.571075439 6.201607704 -169.83001709 21.454551697 0.003087 -1e-06 170.571075439 6.201607704 -169.83001709 -20.295578003 -3.820436478 2.814056396 84.006080627 0.067573212 9.533421516 21.454551697 0.003087 -1e-06 170.571075439 6.201607704 -169.83001709 -20.295578003 -3.820436478 2.814056396 84.006080627 0.067573212 9.533421516 
-41.85736084 91.60533905 -41.545799255 90.159095764 -2.322979212 85.223480225 169.916595459 -0.178689033 167.749023438 -22.316623688 2.172584772 -6.609544277 84.287521362 4.009429455 -2.376496315 21.454557419 0.003099 3e-06 169.916595459 -0.178689033 167.749023438 -22.316623688 2.172584772 -6.609544277 84.287521362 4.009429455 -2.376496315 21.454557419 0.003099 3e-06 169.916595459 -0.178689033 167.749023438 -22.316623688 2.172584772 -6.609544277 84.287521362 4.009429455 -2.376496315 21.454557419 0.003099 3e-06 170.489181519 6.221604347 -169.901062012 21.454557419 0.003099 3e-06 170.489181519 6.221604347 -169.901062012 -20.058706284 -3.714624405 2.812013388 83.903739929 0.062174372 9.464217186 21.454557419 0.003099 3e-06 170.489181519 6.221604347 -169.901062012 -20.058706284 -3.714624405 2.812013388 83.903739929 0.062174372 9.464217186 
-41.82408905 91.612098694 -41.77645874 90.150985718 -2.389452219 85.14679718 169.742080688 -0.17449303 167.756561279 -22.243701935 2.170456648 -6.657429218 84.183830261 4.049630165 -2.333448887 21.454551697 0.00309 -1e-06 169.742080688 -0.17449303 167.756561279 -22.243701935 2.170456648 -6.657429218 84.183830261 4.049630165 -2.333448887 21.454551697 0.00309 -1e-06 169.742080688 -0.17449303 167.756561279 -22.243701935 2.170456648 -6.657429218 84.183830261 4.049630165 -2.333448887 21.454551697 0.00309 -1e-06 170.366531372 6.226305962 -170.0103302 21.454551697 0.00309 -1e-06 170.366531372 6.226305962 -170.0103302 -19.858903885 -3.618901968 2.813568592 83.799865723 0.061634362 9.398274422 21.454551697 0.00309 -1e-06 170.366531372 6.226305962 -170.0103302 -19.858903885 -3.618901968 2.813568592 83.799865723 0.061634362 9.398274422 
